<svg width="23" height="26" viewBox="0 0 23 26" fill="none" xmlns="http://www.w3.org/2000/svg">
<path d="M7.5 11.708H5V14.208H7.5V11.708ZM12.5 11.708H10V14.208H12.5V11.708ZM17.5 11.708H15V14.208H17.5V11.708ZM20 2.95801H18.75V0.458008H16.25V2.95801H6.25V0.458008H3.75V2.95801H2.5C1.1125 2.95801 0.0125 4.08301 0.0125 5.45801L0 22.958C0 24.333 1.1125 25.458 2.5 25.458H20C21.375 25.458 22.5 24.333 22.5 22.958V5.45801C22.5 4.08301 21.375 2.95801 20 2.95801ZM20 22.958H2.5V9.20801H20V22.958Z" fill="#000042"/>
</svg>
