<svg width="25" height="25" viewBox="0 0 25 25" fill="none" xmlns="http://www.w3.org/2000/svg">
<path d="M7.24914 14.4675C8.96884 14.4675 10.347 15.8592 10.347 17.5911V21.7488C10.347 23.4685 8.96884 24.8711 7.24914 24.8711H3.12672C1.41921 24.8711 0.0288086 23.4685 0.0288086 21.7488V17.5911C0.0288086 15.8592 1.41921 14.4675 3.12672 14.4675H7.24914ZM21.324 14.4675C23.0315 14.4675 24.4219 15.8592 24.4219 17.5911V21.7488C24.4219 23.4685 23.0315 24.8711 21.324 24.8711H17.2016C15.4819 24.8711 14.1037 23.4685 14.1037 21.7488V17.5911C14.1037 15.8592 15.4819 14.4675 17.2016 14.4675H21.324ZM7.24914 0.478516C8.96884 0.478516 10.347 1.88111 10.347 3.60204V7.75983C10.347 9.49173 8.96884 10.8821 7.24914 10.8821H3.12672C1.41921 10.8821 0.0288086 9.49173 0.0288086 7.75983V3.60204C0.0288086 1.88111 1.41921 0.478516 3.12672 0.478516H7.24914ZM21.324 0.478516C23.0315 0.478516 24.4219 1.88111 24.4219 3.60204V7.75983C24.4219 9.49173 23.0315 10.8821 21.324 10.8821H17.2016C15.4819 10.8821 14.1037 9.49173 14.1037 7.75983V3.60204C14.1037 1.88111 15.4819 0.478516 17.2016 0.478516H21.324Z" fill="#000042"/>
</svg>
