<svg width="24" height="20" viewBox="0 0 24 20" fill="none" xmlns="http://www.w3.org/2000/svg">
<path d="M11.5 5.5C12.3284 5.5 13 4.82843 13 4C13 3.17157 12.3284 2.5 11.5 2.5C10.6716 2.5 10 3.17157 10 4C10 4.82843 10.6716 5.5 11.5 5.5Z" fill="black"/>
<path d="M11.5 11.5C12.3284 11.5 13 10.8284 13 10C13 9.17157 12.3284 8.5 11.5 8.5C10.6716 8.5 10 9.17157 10 10C10 10.8284 10.6716 11.5 11.5 11.5Z" fill="black"/>
<path d="M11.5 17.5C12.3284 17.5 13 16.8284 13 16C13 15.1716 12.3284 14.5 11.5 14.5C10.6716 14.5 10 15.1716 10 16C10 16.8284 10.6716 17.5 11.5 17.5Z" fill="black"/>
</svg>
