<svg width="28" height="20" viewBox="0 0 28 20" fill="none" xmlns="http://www.w3.org/2000/svg">
<path d="M14.1631 13.2296C18.3479 13.2296 21.9212 13.8931 21.9212 16.548C21.9212 19.2018 18.3708 19.8894 14.1631 19.8894C9.97822 19.8894 6.40494 19.2259 6.40494 16.5722C6.40494 13.9173 9.95529 13.2296 14.1631 13.2296ZM20.8541 11.631C22.454 11.6013 24.174 11.821 24.8096 11.977C26.1562 12.2417 27.0418 12.7821 27.4088 13.5675C27.7189 14.2123 27.7189 14.9603 27.4088 15.604C26.8474 16.8222 25.0379 17.2132 24.3346 17.3143C24.1893 17.3362 24.0725 17.2099 24.0878 17.0638C24.4471 13.6884 21.5891 12.0879 20.8497 11.72C20.8181 11.7035 20.8115 11.6782 20.8148 11.6629C20.817 11.6519 20.8301 11.6343 20.8541 11.631ZM7.29589 11.6287L7.59716 11.6314C7.62119 11.6347 7.6332 11.6523 7.63539 11.6622C7.63866 11.6787 7.63211 11.7028 7.60153 11.7204C6.8611 12.0884 4.00314 13.6888 4.36243 17.0632C4.37772 17.2103 4.26196 17.3356 4.11671 17.3147C3.41341 17.2136 1.60384 16.8226 1.04251 15.6044C0.731271 14.9597 0.731271 14.2127 1.04251 13.568C1.40945 12.7826 2.29403 12.2422 3.64057 11.9763C4.27725 11.8215 5.99618 11.6018 7.59716 11.6314L7.29589 11.6287ZM14.1631 0.375C17.0123 0.375 19.2969 2.67071 19.2969 5.5376C19.2969 8.40339 17.0123 10.7013 14.1631 10.7013C11.3138 10.7013 9.02921 8.40339 9.02921 5.5376C9.02921 2.67071 11.3138 0.375 14.1631 0.375ZM21.1326 1.23595C23.8846 1.23595 26.0459 3.84031 25.3098 6.74125C24.8129 8.69425 23.0142 9.99149 21.0103 9.93877C20.8093 9.93327 20.6117 9.9146 20.4206 9.88165C20.2819 9.85748 20.212 9.70041 20.2906 9.58398C21.0551 8.4526 21.4908 7.09165 21.4908 5.63074C21.4908 4.10613 21.0147 2.68477 20.1879 1.51934C20.1617 1.48309 20.1421 1.42707 20.1683 1.38533C20.1901 1.35128 20.2305 1.33371 20.2688 1.32492C20.5472 1.2678 20.8334 1.23595 21.1326 1.23595ZM7.31705 1.23584C7.61628 1.23584 7.9024 1.26769 8.18197 1.32481C8.2191 1.3336 8.2606 1.35227 8.28244 1.38522C8.30756 1.42696 8.289 1.48298 8.26279 1.51923C7.43608 2.68466 6.95994 4.10602 6.95994 5.63063C6.95994 7.09154 7.39568 8.45249 8.16013 9.58387C8.23876 9.7003 8.16887 9.85737 8.03017 9.88154C7.83797 9.91559 7.64139 9.93316 7.44045 9.93866C5.43649 9.99138 3.63784 8.69414 3.14094 6.74114C2.40379 3.8402 4.56501 1.23584 7.31705 1.23584Z" fill="#000042"/>
</svg>
