<svg width="24" height="26" viewBox="0 0 24 26" fill="none" xmlns="http://www.w3.org/2000/svg">
<path d="M12.7818 0.836914C13.7041 0.836914 14.5392 1.34917 15.0004 2.10535C15.2248 2.47124 15.3743 2.92252 15.3369 3.39818C15.312 3.76407 15.4242 4.12997 15.6236 4.47147C16.2593 5.50817 17.6678 5.89846 18.7646 5.31303C19.9986 4.60563 21.5566 5.03251 22.2671 6.23996L23.1022 7.67915C23.8251 8.8866 23.4263 10.4356 22.1798 11.1308C21.1204 11.7528 20.7464 13.131 21.3821 14.1799C21.5815 14.5092 21.8059 14.7897 22.1549 14.9605C22.5912 15.1922 22.9277 15.5581 23.1645 15.924C23.6257 16.6802 23.5883 17.6071 23.1396 18.4243L22.2671 19.8878C21.8059 20.6684 20.9459 21.1563 20.0609 21.1563C19.6247 21.1563 19.1385 21.0343 18.7397 20.7904C18.4156 20.583 18.0417 20.5099 17.6428 20.5099C16.4089 20.5099 15.3743 21.5222 15.3369 22.7296C15.3369 24.1322 14.1902 25.2299 12.7568 25.2299H11.0617C9.61582 25.2299 8.4691 24.1322 8.4691 22.7296C8.44417 21.5222 7.40964 20.5099 6.17567 20.5099C5.76435 20.5099 5.39042 20.583 5.07881 20.7904C4.67995 21.0343 4.18138 21.1563 3.7576 21.1563C2.86017 21.1563 2.00013 20.6684 1.53895 19.8878L0.678914 18.4243C0.217735 17.6315 0.192806 16.6802 0.653985 15.924C0.853414 15.5581 1.22734 15.1922 1.65113 14.9605C2.00013 14.7897 2.22449 14.5092 2.43638 14.1799C3.0596 13.131 2.68567 11.7528 1.6262 11.1308C0.392235 10.4356 -0.00662289 8.8866 0.703842 7.67915L1.53895 6.23996C2.26188 5.03251 3.80745 4.60563 5.05388 5.31303C6.13828 5.89846 7.54674 5.50817 8.18242 4.47147C8.38185 4.12997 8.49403 3.76407 8.4691 3.39818C8.44417 2.92252 8.58128 2.47124 8.8181 2.10535C9.27928 1.34917 10.1144 0.861307 11.0243 0.836914H12.7818ZM11.9217 9.594C9.96482 9.594 8.38185 11.1308 8.38185 13.0456C8.38185 14.9605 9.96482 16.485 11.9217 16.485C13.8786 16.485 15.4242 14.9605 15.4242 13.0456C15.4242 11.1308 13.8786 9.594 11.9217 9.594Z" fill="#000042"/>
</svg>
